PathFileType	4	(X/Y/Z)	OpenSim_Sub04_CSBaseline_Magnet.trc
DataRate	CameraRate	NumFrames	NumMarkers	Units	OrigDataRate	OrigDataStartFrame	OrigNumFrames
100	100	23	8	m	100	2021	8083
Frame#	Time	torso_imu_offset_imu	pelvis_imu_offset_imu	tibia_r_imu_offset_imu	femur_r_imu_offset_imu	tibia_l_imu_offset_imu	femur_l_imu_offset_imu	toes_r_imu_offset_imu	toes_l_imu_offset_imu
				X1	Y1	Z1	X2	Y2	Z2	X3	Y3	Z3	X4	Y4	Z4	X5	Y5	Z5	X6	Y6	Z6	X7	Y7	Z7	X8		Y8	Z8	

2021	20.20000000	0.92056649	0.17432289	-0.11778656	-0.61541310	0.14718035	-0.65720146	-0.18785964	-0.77291946	-0.02916773	-0.81872495	-0.16098417	0.10374661	-0.59554247	0.48803705	0.24470374	-0.51660278	-0.07996655	0.32052536	-0.71132654	-0.34356223	0.14974277	-0.67477856	-0.26947631	-0.32928766
2022	20.21000000	0.91456690	0.17647478	-0.11401949	-0.61841687	0.14416605	-0.66062048	-0.21799357	-0.76138172	-0.03262396	-0.82240326	-0.14925239	0.10328050	-0.58793242	0.49660486	0.25142259	-0.52432041	-0.07328149	0.31861017	-0.72561601	-0.33214704	0.10503432	-0.67790711	-0.26640050	-0.32611675
2023	20.22000000	0.91712552	0.17439113	-0.11349279	-0.61772539	0.14775789	-0.66228026	-0.24537245	-0.75334704	-0.03444705	-0.82520627	-0.13788948	0.10346962	-0.58953313	0.49624209	0.25247815	-0.51646670	-0.06806730	0.32170673	-0.73428369	-0.30683437	0.06591814	-0.67985758	-0.26695211	-0.32012240
2024	20.23000000	0.91864579	0.17783673	-0.11631055	-0.61722919	0.15880726	-0.65999564	-0.27592292	-0.73982347	-0.03404537	-0.82276273	-0.13143290	0.09892312	-0.58446728	0.49685722	0.25384667	-0.52185966	-0.06787633	0.32804070	-0.74881265	-0.29072037	0.02873212	-0.68379450	-0.26275293	-0.32629186
2025	20.24000000	0.91423569	0.18005641	-0.11099840	-0.61654975	0.16259907	-0.66166001	-0.31347382	-0.72536979	-0.03916902	-0.83100316	-0.12337432	0.09790334	-0.58073605	0.50279432	0.25617354	-0.51160893	-0.06489759	0.33590062	-0.75618095	-0.27005272	-0.01304705	-0.68964573	-0.26389015	-0.32473500
2026	20.25000000	0.91334650	0.18480881	-0.10762316	-0.60952158	0.16367997	-0.66241570	-0.34979750	-0.70715572	-0.03955808	-0.82832501	-0.11596945	0.09594535	-0.58025049	0.51158512	0.25595325	-0.50948856	-0.05432830	0.33283638	-0.75418855	-0.24919319	-0.05150191	-0.68331606	-0.26427701	-0.33061496
2027	20.26000000	0.91385748	0.18130739	-0.10888555	-0.61323228	0.17193991	-0.66249107	-0.38815382	-0.68887186	-0.04954916	-0.83348413	-0.10173428	0.09280723	-0.56912634	0.51718975	0.25686012	-0.50287605	-0.04869602	0.33245090	-0.75968445	-0.23921583	-0.09199358	-0.68790545	-0.26448492	-0.32693410
2028	20.27000000	0.91154272	0.18252440	-0.11248666	-0.60801305	0.17297390	-0.66279028	-0.42153155	-0.66513420	-0.06033261	-0.83417528	-0.11019531	0.09272310	-0.57145615	0.51756621	0.26148124	-0.49717604	-0.04261362	0.34318279	-0.76202261	-0.21890772	-0.13656227	-0.69131115	-0.26266862	-0.31698451
2029	20.28000000	0.91310218	0.18092762	-0.10585697	-0.61081340	0.17679888	-0.66205879	-0.45440440	-0.63772137	-0.06958003	-0.83821533	-0.10487737	0.09241917	-0.56786876	0.51910313	0.26241348	-0.49334442	-0.03742916	0.34702940	-0.75706386	-0.21080306	-0.17444126	-0.69420188	-0.26069948	-0.31566701
2030	20.29000000	0.91376646	0.18260009	-0.10943912	-0.60960389	0.17523503	-0.66911080	-0.49358422	-0.61289314	-0.08371516	-0.83509312	-0.10610746	0.09331297	-0.55781046	0.52317782	0.25977121	-0.48889479	-0.03527672	0.34900091	-0.74709520	-0.19573511	-0.21799199	-0.69000435	-0.25610448	-0.31592575
2031	20.30000000	0.91325840	0.18098704	-0.10421606	-0.61197938	0.18043845	-0.66441547	-0.52155816	-0.58230365	-0.09461426	-0.83628658	-0.10921785	0.08705362	-0.55735351	0.52907403	0.26079126	-0.48469591	-0.03100059	0.34939569	-0.73865431	-0.18598404	-0.25556588	-0.69480737	-0.25720412	-0.31613797
2032	20.31000000	0.91576881	0.18228674	-0.10472037	-0.60585812	0.18000336	-0.66187318	-0.55052723	-0.55350029	-0.10552150	-0.83277160	-0.11203481	0.08587036	-0.55182893	0.53720524	0.26460354	-0.48162496	-0.02761584	0.35071363	-0.72933789	-0.17201443	-0.30457194	-0.69855237	-0.25824252	-0.31265518
2033	20.32000000	0.91229894	0.18330590	-0.10673484	-0.60927446	0.17948519	-0.66757316	-0.58034686	-0.51691533	-0.12402696	-0.83328642	-0.12195574	0.08632076	-0.54965864	0.53156841	0.26665898	-0.48296722	-0.01583266	0.35675323	-0.71592134	-0.16421568	-0.34452505	-0.70027634	-0.25443051	-0.30657043
2034	20.33000000	0.91089214	0.17951329	-0.11269786	-0.60190012	0.17760465	-0.66118607	-0.60106609	-0.48413888	-0.13831466	-0.83456906	-0.12856041	0.08823464	-0.55188794	0.53677313	0.25936186	-0.47300821	-0.02146469	0.36232229	-0.69593114	-0.15302445	-0.38302306	-0.70452001	-0.24978058	-0.31339763
2035	20.34000000	0.91560266	0.17797854	-0.09840598	-0.60588273	0.17731589	-0.66573473	-0.62477319	-0.45165778	-0.14616729	-0.82790240	-0.14004051	0.09128140	-0.53784765	0.55047107	0.26151471	-0.46894066	-0.00760821	0.36263308	-0.67840991	-0.13974939	-0.42366533	-0.70949404	-0.24710946	-0.30480137
2036	20.35000000	0.91199993	0.18299654	-0.10309343	-0.60576297	0.17450055	-0.66987271	-0.64399017	-0.41675412	-0.15767384	-0.82881907	-0.14972836	0.09365929	-0.53503842	0.55858757	0.26039006	-0.46978408	-0.00136397	0.36281805	-0.66331451	-0.12791799	-0.45617527	-0.71191673	-0.24869004	-0.29904516
2037	20.36000000	0.91336359	0.17575466	-0.10764010	-0.60451507	0.16607938	-0.66879005	-0.66125588	-0.37815855	-0.16950839	-0.82385425	-0.15520028	0.09670178	-0.53444693	0.56092129	0.25952579	-0.46616320	-0.00241135	0.36026582	-0.63878982	-0.10809855	-0.48918879	-0.71572050	-0.25000860	-0.28949758
2038	20.37000000	0.91332940	0.17553367	-0.10542981	-0.60615150	0.16413001	-0.67329195	-0.68188257	-0.35170600	-0.17101945	-0.82037526	-0.16727203	0.09548120	-0.52822418	0.56531910	0.25894487	-0.46132632	0.00357218	0.36422410	-0.62367700	-0.08862639	-0.51892186	-0.72097673	-0.24349086	-0.29255387
2039	20.38000000	0.91945744	0.17864249	-0.10530488	-0.61098921	0.16723691	-0.67085949	-0.69247484	-0.32183123	-0.17740447	-0.81813981	-0.17417330	0.09463077	-0.52153718	0.56692854	0.26177442	-0.45921381	0.00626253	0.36384398	-0.60241737	-0.07278637	-0.53492201	-0.72309674	-0.24456651	-0.27225802
2040	20.39000000	0.91689504	0.17727623	-0.10359092	-0.60910491	0.15870745	-0.66469934	-0.70526792	-0.29299817	-0.18398910	-0.81892972	-0.18413262	0.09951059	-0.51419649	0.57750325	0.25313674	-0.45537177	0.01197432	0.37446566	-0.58547934	-0.06337666	-0.55288655	-0.72744198	-0.24371351	-0.26946206
2041	20.40000000	0.91607921	0.17293739	-0.10211390	-0.61203734	0.15005609	-0.66608159	-0.71475512	-0.26978638	-0.18646954	-0.82060180	-0.18969412	0.10064052	-0.51570539	0.57893103	0.25326565	-0.45075281	0.01740759	0.37059063	-0.57611729	-0.05679116	-0.56872686	-0.72996794	-0.24082366	-0.25249225
2042	20.41000000	0.91379193	0.17224309	-0.10733509	-0.61299235	0.15250655	-0.66629562	-0.71444068	-0.24737714	-0.19489518	-0.80858133	-0.19417435	0.10006326	-0.51012802	0.58579669	0.25219444	-0.44989544	0.01891261	0.37028587	-0.55759192	-0.05195093	-0.58007946	-0.73396750	-0.24438906	-0.24405907
2043	20.42000000	0.91765669	0.17230147	-0.09962664	-0.61464326	0.14344811	-0.66874228	-0.72872339	-0.23930989	-0.18622743	-0.80642767	-0.20728468	0.10483169	-0.49439456	0.59487666	0.24721524	-0.45111899	0.02778141	0.37485267	-0.55134071	-0.04538608	-0.58487356	-0.73696049	-0.24856460	-0.24139180
